<svg width="158" height="19" viewBox="0 0 158 19" fill="none" xmlns="http://www.w3.org/2000/svg"><path d="M4.34046 18.4651V11.9329H19.4374V8.43681H4.34046V4.10606H20.946V0.535034H0V18.4651H4.34046Z" fill="currentColor"></path> <path d="M44.4578 14.9689C46.3633 17.2664 51.0479 18.7397 55.4148 18.7397C60.9992 18.7397 65.1808 16.7669 65.1808 12.7464C65.1808 8.82575 61.105 8.10155 56.1294 7.57714C51.4448 7.07769 50.1215 6.82797 50.1215 5.65427C50.1215 4.58047 51.6301 3.73141 54.6208 3.73141C57.7703 3.73141 60.5228 4.70533 62.0313 6.3535L64.8103 3.58158C63.0106 1.60877 59.1994 0.260273 54.9119 0.260273C49.4069 0.260273 45.7811 2.53275 45.7811 6.10377C45.7811 9.69977 49.4334 10.5738 53.9591 11.0483C59.0407 11.5727 60.6022 11.6976 60.6022 13.1959C60.6022 14.4944 58.5378 15.2436 55.6 15.2436C52.8476 15.2436 49.4599 14.4195 47.2367 11.9473L44.4578 14.9689Z" fill="currentColor"></path> <path d="M84.3659 0.535034V6.78753C84.3659 7.33982 83.9182 7.78753 83.3659 7.78753H73.8796C73.3273 7.78753 72.8796 7.33982 72.8796 6.78753V0.535034H68.4597V18.4651H72.8796V12.3336C72.8796 11.7813 73.3273 11.3336 73.8796 11.3336H83.3659C83.9182 11.3336 84.3659 11.7813 84.3659 12.3336V18.4651H88.7858V0.535034H84.3659Z" fill="currentColor"></path> <path d="M125.741 12.4823H133.284C137.757 12.4823 140.695 10.3294 140.695 6.50867C140.695 2.66295 137.757 0.535034 133.284 0.535034H121.321V18.4651H125.741V12.4823ZM125.741 8.9862V4.05612H133.046C135.137 4.05612 136.328 5.03531 136.328 6.50867C136.328 7.98204 135.137 8.9862 133.046 8.9862H125.741Z" fill="currentColor"></path> <path fill-rule="evenodd" clip-rule="evenodd" d="M102.4 3.8C99.4826 3.8 96.457 6.70176 96.457 9.5C96.457 12.2982 99.4826 15.2 102.4 15.2H107.683C110.601 15.2 113.626 12.2982 113.626 9.5C113.626 6.70176 110.601 3.8 107.683 3.8H102.4ZM91.8345 9.5C91.8345 4.2533 96.2693 0 101.74 0H108.343C113.814 0 118.249 4.2533 118.249 9.5C118.249 14.7467 113.814 19 108.343 19H101.74C96.2693 19 91.8345 14.7467 91.8345 9.5Z" fill="currentColor"></path> <path d="M24.9089 11.4521H38.3214V14.5753H24.9089V11.4521Z" fill="currentColor"></path> <path d="M27.9891 0.52055H32.5733L25.0581 18.4795H19.9819L27.9891 0.52055Z" fill="currentColor"></path> <path d="M30.7939 0.52055H35.4212L43.659 18.4795H38.5366L30.7939 0.52055Z" fill="currentColor"></path> <path d="M31.6973 3.31916C31.376 3.31916 31.2968 3.57258 31.2003 3.77397H30.9446V2.34246H32.4501V3.77397H32.2103C32.0958 3.5409 32.0186 3.31916 31.6973 3.31916Z" fill="currentColor"></path> <rect x="146.367" y="0.650684" width="11.6333" height="3.12329" rx="1" fill="currentColor" class="anim-color group-hover:text-accent"></rect> <rect width="14.0793" height="3.33854" rx="1" transform="matrix(0.724686 -0.689079 0.724686 0.689079 144.663 10.873)" fill="currentColor" class="anim-color group-hover:text-accent"></rect> <rect x="154.715" y="0.650684" width="3.2847" height="11.0617" rx="1" fill="currentColor" class="anim-color group-hover:text-accent"></rect></svg>