<?xml version="1.0" encoding="UTF-8" standalone="no"?>
<!DOCTYPE svg PUBLIC "-//W3C//DTD SVG 1.1//EN" "http://www.w3.org/Graphics/SVG/1.1/DTD/svg11.dtd">
<svg width="100%" height="100%" viewBox="0 0 673 223" version="1.1" xmlns="http://www.w3.org/2000/svg" xmlns:xlink="http://www.w3.org/1999/xlink" xml:space="preserve" xmlns:serif="http://www.serif.com/" style="fill-rule:evenodd;clip-rule:evenodd;stroke-linejoin:round;stroke-miterlimit:2;"><g id="logo-WSN"><path d="M175.629,217.775l-35.921,-144.287l-0.596,-0l-35.329,144.287l-47.204,0l-56.112,-211.975l46.612,0l33.546,144.284l0.596,-0l36.812,-144.284l43.642,0l36.221,146.067l0.596,0l34.733,-146.067l45.721,0l-57,211.975l-46.317,0Z" style="fill-rule:nonzero;"/><path d="M335.942,165.524c2.571,4.95 5.984,8.959 10.242,12.025c4.254,3.071 9.25,5.342 14.996,6.825c5.737,1.484 11.675,2.229 17.812,2.229c4.155,0 8.609,-0.341 13.359,-1.041c4.75,-0.688 9.204,-2.025 13.358,-4.009c4.158,-1.975 7.621,-4.695 10.392,-8.162c2.771,-3.458 4.158,-7.867 4.158,-13.208c0,-5.742 -1.833,-10.392 -5.492,-13.959c-3.666,-3.558 -8.462,-6.529 -14.4,-8.904c-5.937,-2.375 -12.67,-4.454 -20.187,-6.233c-7.525,-1.784 -15.142,-3.759 -22.863,-5.938c-7.916,-1.979 -15.637,-4.404 -23.158,-7.275c-7.521,-2.866 -14.246,-6.579 -20.187,-11.133c-5.938,-4.55 -10.738,-10.242 -14.396,-17.071c-3.667,-6.829 -5.492,-15.092 -5.492,-24.792c0,-10.883 2.321,-20.337 6.975,-28.35c4.65,-8.016 10.733,-14.695 18.258,-20.041c7.517,-5.342 16.03,-9.3 25.534,-11.875c9.5,-2.571 19,-3.859 28.5,-3.859c11.083,0 21.716,1.238 31.912,3.713c10.192,2.475 19.246,6.483 27.167,12.021c7.912,5.546 14.2,12.621 18.854,21.229c4.646,8.608 6.975,19.05 6.975,31.321l-45.125,-0c-0.4,-6.334 -1.737,-11.579 -4.008,-15.738c-2.279,-4.154 -5.3,-7.421 -9.054,-9.796c-3.763,-2.375 -8.067,-4.054 -12.917,-5.045c-4.854,-0.988 -10.146,-1.488 -15.883,-1.488c-3.763,0 -7.525,0.4 -11.284,1.192c-3.758,0.791 -7.175,2.179 -10.241,4.154c-3.071,1.979 -5.592,4.454 -7.571,7.421c-1.979,2.971 -2.967,6.733 -2.967,11.283c0,4.158 0.788,7.525 2.375,10.096c1.583,2.571 4.7,4.946 9.35,7.125c4.65,2.179 11.083,4.354 19.3,6.529c8.208,2.183 18.95,4.95 32.208,8.313c3.959,0.791 9.455,2.225 16.48,4.308c7.02,2.075 14,5.392 20.933,9.942c6.925,4.558 12.912,10.641 17.958,18.258c5.05,7.621 7.571,17.371 7.571,29.246c0,9.7 -1.883,18.704 -5.642,27.016c-3.758,8.313 -9.35,15.488 -16.77,21.521c-7.425,6.042 -16.625,10.742 -27.613,14.104c-10.983,3.363 -23.704,5.046 -38.15,5.046c-11.679,0 -23.008,-1.437 -33.992,-4.304c-10.987,-2.867 -20.687,-7.371 -29.095,-13.508c-8.413,-6.134 -15.096,-13.95 -20.038,-23.454c-4.95,-9.5 -7.325,-20.78 -7.129,-33.842l45.129,-0c0,7.125 1.283,13.162 3.858,18.108" style="fill-rule:nonzero;"/><path d="M539.306,5.799l88.471,142.208l0.591,0l0,-142.208l43.642,-0l-0,211.975l-46.608,-0l-88.175,-141.909l-0.596,0l-0,141.909l-43.642,-0l0,-211.975l46.317,-0Z" style="fill-rule:nonzero;"/></g></svg>